<svg xmlns="http://www.w3.org/2000/svg" width="647.636" height="632.174" xmlns:v="https://vecta.io/nano"><path d="M411.146 142.174h-174.51a15.02 15.02 0 0 0-15 15v387.85l-2 .61-42.81 13.11a8.01 8.01 0 0 1-9.99-5.31l-127.34-415.95c-1.29-4.225 1.086-8.696 5.31-9.99l65.97-20.2 191.25-58.54 65.97-20.2a7.99 7.99 0 0 1 9.99 5.3l32.55 106.32z" fill="#f2f2f2"/><path d="M449.226 140.174l-39.23-128.14c-1.318-4.312-4.296-7.923-8.278-10.039S393.077-.567 388.766.754l-92.75 28.39-191.24 58.55-92.75 28.4a17.02 17.02 0 0 0-11.28 21.23l134.08 437.93a17.03 17.03 0 0 0 16.26 12.03 16.79 16.79 0 0 0 4.97-.75l63.58-19.46 2-.62v-2.09l-2 .61-64.17 19.65c-7.919 2.414-16.297-2.037-18.73-9.95L2.667 136.734a14.98 14.98 0 0 1 9.95-18.73l92.75-28.4 191.24-58.54 92.75-28.4c1.429-.436 2.915-.659 4.41-.66 6.583.015 12.389 4.316 14.32 10.61l39.05 127.56.62 2h2.08z" fill="#3f3d56"/><g fill="#ff328f"><path d="M122.681 127.821c-3.956-.003-7.449-2.585-8.611-6.367l-12.88-42.072a9 9 0 0 1 5.971-11.24l175.939-53.864a9.01 9.01 0 0 1 11.241 5.971l12.88 42.072c1.449 4.752-1.222 9.781-5.971 11.241L125.31 127.426c-.852.261-1.738.395-2.629.395z"/><circle cx="190.154" cy="24.955" r="20"/></g><circle cx="190.154" cy="24.955" r="12.665" fill="#fff"/><path d="M602.636 582.174h-338a8.51 8.51 0 0 1-8.5-8.5v-405a8.51 8.51 0 0 1 8.5-8.5h338a8.51 8.51 0 0 1 8.5 8.5v405a8.51 8.51 0 0 1-8.5 8.5z" fill="#e6e6e6"/><path d="M447.136 140.174h-210.5c-9.383.013-16.987 7.617-17 17v407.8l2-.61v-407.19a15.02 15.02 0 0 1 15-15h211.12zm183.5 0h-394c-9.383.013-16.987 7.617-17 17v458c.013 9.383 7.617 16.987 17 17h394c9.383-.013 16.987-7.617 17-17v-458c-.013-9.383-7.617-16.987-17-17zm15 475a15.02 15.02 0 0 1-15 15h-394a15.02 15.02 0 0 1-15-15v-458a15.02 15.02 0 0 1 15-15h394a15.02 15.02 0 0 1 15 15z" fill="#3f3d56"/><g fill="#ff328f"><path d="M525.636 184.174h-184a9.01 9.01 0 0 1-9-9v-44a9.01 9.01 0 0 1 9-9h184a9.01 9.01 0 0 1 9 9v44a9.01 9.01 0 0 1-9 9z"/><circle cx="433.636" cy="105.174" r="20"/></g><circle cx="433.636" cy="105.174" r="12.182" fill="#fff"/></svg>