<svg xmlns="http://www.w3.org/2000/svg" xmlns:xlink="http://www.w3.org/1999/xlink" width="719.769" height="687.25" xmlns:v="https://vecta.io/nano"><path d="M668.769 182.587V144h-6v38.587a8 8 0 1 0 6 0zm14 389.413h-41V74h-16v498h-41a37 37 0 0 0-37 37h0 172 0a37 37 0 0 0-37-37z" fill="#e6e6e6"/><path d="M547.852 148h171.834L709.179 16.66A18.2 18.2 0 0 0 691.133 0H576.406a18.2 18.2 0 0 0-18.046 16.66z" fill="#ff328f"/><use xlink:href="#A" fill="#3f3d56"/><use xlink:href="#A" opacity=".2"/><path d="M129.072 476.071h403.632c-.798-44.176-36.811-79.584-80.994-79.633H210.066c-44.183.049-80.196 35.457-80.994 79.633z" fill="#ff328f"/><g fill="#3f3d56"><circle cx="81.006" cy="386.827" r="81.006"/><circle cx="572.533" cy="386.827" r="81.006"/><path d="M511.435 428.017v30.206H137.298v-30.206H53.546v147.222c0 18.784 15.227 34.011 34.011 34.011h473.619a34.01 34.01 0 0 0 34.011-34.011V428.017z"/></g><circle cx="81.006" cy="386.827" r="16.476" opacity=".2"/><circle cx="572.533" cy="386.827" r="16.476" opacity=".2"/><path d="M353.178 132.496s1.62 30.775 12.958 37.254 0 50.211 0 50.211l-53.451 1.62-3.239-51.831s6.479-21.056 3.239-30.775 40.493-6.479 40.493-6.479zm59.929 427.606l-19.436 22.676 30.775 29.155 16.197-32.394-27.536-19.437zm-137.676 0l19.437 22.676-30.775 29.155-16.197-32.394 27.535-19.437z" fill="#ffb8b8"/><g fill="#2f2e41"><path d="M402.579 345.489s116.62 38.873 110.141 76.127-56.69 168.451-56.69 168.451-27.535 0-48.592-29.155l14.577-32.394s-6.479-17.817 4.859-21.056 17.817-59.93 17.817-59.93-82.606-6.479-100.423-37.254l-32.394-77.746z"/><path d="M285.96 345.489s-116.62 38.873-110.141 76.127 56.69 168.451 56.69 168.451 27.535 0 48.592-29.155l-14.577-32.394s6.479-17.817-4.859-21.056-17.817-59.93-17.817-59.93 82.606-6.479 100.423-37.254l32.394-77.746zm132.816 254.296s16.197-14.577 17.817-3.239-1.62 56.69-1.62 56.69 16.197 34.014-8.099 34.014-35.634-25.915-32.394-51.831-11.338-35.634-11.338-35.634-17.817-35.634 0-38.873 24.296 4.859 24.296 4.859-6.479 29.155 11.338 34.014zm-149.014 0s-16.197-14.577-17.817-3.239 1.62 56.69 1.62 56.69-16.197 34.014 8.099 34.014 35.634-25.915 32.394-51.831 11.338-35.634 11.338-35.634 17.817-35.634 0-38.873-24.296 4.859-24.296 4.859 6.479 29.155-11.338 34.014z"/></g><circle cx="328.072" cy="113.87" r="37.254" fill="#ffb8b8"/><path d="M333.741 177.849l-22.676-17.817-55.07 25.915-1.62 147.394s-34.014 16.197-24.296 37.254c0 0 29.155 6.479 42.113 19.437s85.845-4.859 116.62-14.577 38.873-21.056 38.873-21.056l-30.775-43.732 17.817-111.761-55.064-37.021z" fill="#e6e6e6"/><path d="M373.363 88.514a32.73 32.73 0 0 1-2.221-3.447c-1.155-2.813.669-6.129-1.035-8.756-1.74-2.682-6.159-3.247-9.165-5.069-4.631-2.807-5.473-8.314-9.811-11.407-3.126-2.228-7.584-2.829-11.762-2.702s-8.299.882-12.478.965a37.62 37.62 0 0 1-16.377-3.349l3.083 6.031c-3.426-.747-6.699-2.073-9.678-3.923-1.364 1.691 1.131 4.259-.416 5.845a4.96 4.96 0 0 1-2.184 1.013 52.26 52.26 0 0 0-16.538 8.068 8.31 8.31 0 0 0-2.783 2.938c-.804 1.781-.091 3.748-.152 5.641-.111 3.441-2.737 6.441-4.601 9.541s-2.87 7.118-.106 9.749a25.18 25.18 0 0 1 1.932 1.703c2.77 3.267-2.133 8.052.23 11.519 1.026 1.505 3.129 2.267 4.957 3.156 3.501 1.637 6.447 4.262 8.474 7.553l-1.421-10.428a1.72 1.72 0 0 1 .283-1.519c.688-.701 2.129-.422 3.079-.886 1.045-.511 1.124-1.683 1.082-2.665l-.32-7.571c-.144-3.405-.184-3.857 2.324-6.605 1.752-1.92 4.507-3.078 7.275-3.93 6.325-1.947 13.128-2.62 19.853-3.278 7.809-.764 16.602-4.553 22.667-.53 4.964 3.293 6.615 8.706 9.007 13.507 2.15 4.315 7.668 17.02 12.262 10.143 2.885-4.319 7.297-16.497 4.541-21.306z" fill="#2f2e41"/><use xlink:href="#B" fill="#3f3d56"/><path d="M337.468 104.438a1.08 1.08 0 0 0-1.079 1.079v11.846a1.08 1.08 0 0 0 1.079 1.079h20.849a1.08 1.08 0 0 0 1.079-1.079v-11.846a1.08 1.08 0 0 0-1.079-1.079z" fill="#ff6584"/><g fill="#3f3d56"><path d="M320.784 108.201h13.986v3.239h-13.986z"/><use xlink:href="#B" x="-38.021"/></g><path d="M299.448 104.438a1.08 1.08 0 0 0-1.079 1.079v11.846a1.08 1.08 0 0 0 1.079 1.079h20.848a1.08 1.08 0 0 0 1.079-1.079v-11.846a1.08 1.08 0 0 0-1.079-1.079z" fill="#ff328f"/><path d="M281.769 297.75h93a14 14 0 0 1 14 14h0a0 0 0 0 1 0 0h-121a0 0 0 0 1 0 0h0a14 14 0 0 1 14-14z" fill="#3f3d56"/><path d="M381.269 296.75a4.96 4.96 0 0 0-1.599.272c-.365-1.469-1.77-2.435-3.273-2.25s-2.631 1.463-2.628 2.978c0 .015.004.029.004.044a5.14 5.14 0 0 0-1.103.229 3.01 3.01 0 0 0-1.483-1.911c.961-.531 1.721-1.363 2.164-2.369a4.02 4.02 0 1 0-.082-7.992 4.96 4.96 0 0 0-1.599.272 2.99 2.99 0 1 0-5.749 1.625c-.12.083-.231.177-.343.27a2.84 2.84 0 0 0-2.045-.681 4.98 4.98 0 0 0-9.683 1.551 5.12 5.12 0 0 0-1.18.235 3 3 0 0 0-.172-.494 3.76 3.76 0 0 0 1.272-2.779c-.146-2.343-2.156-4.13-4.5-4a4.96 4.96 0 0 0-1.599.272 2.99 2.99 0 1 0-5.749 1.625c-1.276.886-2.067 2.317-2.137 3.869l-.131.108c.075-.286.114-.579.116-.874-.146-2.343-2.156-4.13-4.5-4a4.96 4.96 0 0 0-1.599.272 2.99 2.99 0 1 0-5.749 1.625c-1.348.931-2.152 2.465-2.152 4.103s.804 3.171 2.152 4.103c-.202.581-.202 1.214 0 1.795a5.05 5.05 0 0 0-1.279 1.292 2.98 2.98 0 0 0-5.842.505 4.74 4.74 0 0 0-1.286-.519c.81-.535 1.448-1.293 1.837-2.182a4.02 4.02 0 1 0-.082-7.992 4.96 4.96 0 0 0-1.599.272 2.99 2.99 0 1 0-5.749 1.625c-.064.045-.122.097-.184.145l-.468-.042a4.96 4.96 0 0 0-1.599.272c-.019-.075-.05-.145-.074-.219a2.95 2.95 0 0 0-.643-2.546c-.601-.701-1.497-1.079-2.419-1.022-.714-1.988-2.601-3.312-4.713-3.307s-3.993 1.338-4.697 3.33-.08 4.211 1.56 5.543c-.344.039-.683.113-1.013.221a2.97 2.97 0 0 0-4.762-1.608c-.902-1.072-2.238-1.683-3.639-1.664a4.96 4.96 0 0 0-1.599.272 2.99 2.99 0 1 0-5.749 1.625 4.99 4.99 0 0 0-2.152 4.103c0 .015.004.03.005.045a4.15 4.15 0 0 0-2.104.227 2.99 2.99 0 1 0-5.749 1.625 4.98 4.98 0 0 0 3.936 8.97c.37 2.141 2.086 3.795 4.239 4.088a4.98 4.98 0 0 0 5.175-2.809 31.17 31.17 0 0 0 10.802-.487 4.98 4.98 0 0 0 9.278.333 4.89 4.89 0 0 0 2.097-.519c.931 1.645 2.713 2.621 4.6 2.519s3.554-1.264 4.302-3c2.295-.435 4.573.83 5.418 3.007a7.8 7.8 0 0 1 5.744-3.179c2.063.575 4.26-.264 5.415-2.068a5 5 0 0 0 9.423 3.239 4.89 4.89 0 0 0 2.097-.519c.931 1.645 2.713 2.621 4.6 2.519s3.554-1.264 4.302-3a4.89 4.89 0 0 0 2.097-.519 4.95 4.95 0 0 0 7.412 1.437 4.98 4.98 0 0 0 8.906 2.065 4.97 4.97 0 0 0 4.277.863c1.483-.387 2.703-1.438 3.307-2.846a4.02 4.02 0 1 0-.082-7.992zm-89.378-2.064l-.014.073-.108-.009a2.98 2.98 0 0 0-.446.045c.008-.018.02-.034.027-.052a4.98 4.98 0 0 0 .54-.057zm41.779-1.664c-.015-.058-.04-.112-.057-.169.764-.529 1.365-1.26 1.738-2.111a4.68 4.68 0 0 0 3.477-1.574 3.01 3.01 0 0 0-.059.582 2.94 2.94 0 0 0 .152.897 5.02 5.02 0 0 0-1.859 2.437 4.91 4.91 0 0 0-3.392-.062zm29.95.373l.002-.185a2.86 2.86 0 0 0 .381-.026 4.95 4.95 0 0 0 .953 1.765l-.286.074c-.162-.643-.53-1.215-1.05-1.627z" fill="#f9a825"/><path d="M277.843 302.75a10.44 10.44 0 0 0-10.427 11.002l6.771 93.115c.296 5.542 4.877 9.883 10.427 9.883h87.311c5.55.001 10.13-4.341 10.427-9.883l6.771-93.115a10.44 10.44 0 0 0-10.427-11.002z" fill="#3f3d56"/><path d="M282.769 302.75h6v114h-6zm17 0h6v114h-6zm17 0h6v114h-6zm17 0h6v114h-6zm17 0h6v114h-6zm17 0h6v114h-6z" fill="#ff328f"/><path d="M367.755 359.257l-19.437 11.338s-46.972 38.873-14.577 45.352 40.493-27.535 40.493-27.535l11.338-12.958zm-92.324-8.099l19.437 11.338s46.972 38.873 14.577 45.352-40.493-27.535-40.493-27.535l-11.338-12.958z" fill="#ffb8b8"/><path d="M393.671 197.285l21.056 1.62s16.197 14.577 14.577 34.014c0 0 14.577 42.113 11.338 59.93 0 0 3.239 29.155-1.62 40.493s-45.352 55.07-45.352 55.07-37.254-29.155-35.634-30.775l48.592-48.592-24.296-32.394zm-137.676-11.338l-.81.81s-36.444 15.387-34.824 34.824c0 0-14.577 42.113-11.338 59.93 0 0-3.239 29.155 1.62 40.493s45.352 55.07 45.352 55.07 37.254-29.155 35.634-30.775l-48.592-48.592 24.296-32.394z" fill="#e6e6e6"/><defs><path id="A" d="M61.098 457.536h524.479V403.99c0-144.599-117.641-262.239-262.239-262.239s-262.24 117.64-262.24 262.238z"/><path id="B" d="M334.468 103.063a.58.58 0 0 0-.579.579v15.597a.58.58 0 0 0 .579.579h26.85a.58.58 0 0 0 .579-.579v-15.597a.58.58 0 0 0-.579-.579z"/></defs></svg>